<svg width="192" height="192" viewBox="0 0 192 192" fill="none" xmlns="http://www.w3.org/2000/svg">
<rect x="192" width="192" height="192" rx="56" transform="rotate(90 192 0)" fill="#5EA500"/>
<path d="M40.8261 112.045C45.4029 114.695 51.7365 113.543 56.6756 112.793C57.7289 112.633 71.5781 109.77 71.5823 109.799C71.7219 110.969 63.886 114.725 62.9499 115.395C58.7207 118.419 54.4386 122.547 53.322 127.829C50.6228 140.621 67.7705 156.592 79.0748 159.405C89.7262 162.056 99.732 155.568 103.342 145.556C105.895 138.47 106.673 130.191 105.167 122.788C104.818 121.074 100.716 112.392 101.431 111.045C102.018 109.941 110.934 117.206 111.504 117.736C116.183 122.073 120.037 127.419 122.071 133.505C123.101 136.585 122.491 145.239 126.964 145.555C134.352 146.076 135.634 141.639 133.377 135.831C130.746 129.067 127.204 122.626 122.566 117.024C121.488 115.718 109.446 104.677 109.463 104.651C110.052 103.866 117.451 106.279 118.292 106.438C123.746 107.472 129.31 108.07 134.864 108.046C145.268 108.001 160.058 105.585 161.475 92.8638C162.77 81.2648 157.907 64.8492 148.874 57.2643C142.38 51.8087 136.621 53.1918 130.565 58.4593C127.565 61.0698 124.74 63.8883 122.146 66.9048C121.426 67.7417 116.968 74.7322 115.934 74.4038C115.358 74.2214 120.464 65.1799 120.634 64.8416C123.051 59.9869 125.676 54.3444 125.359 48.7841C124.718 37.5496 113.536 32.8735 103.714 32.1338C92.077 31.2603 73.7946 34.4814 69.1399 47.214C66.917 53.295 70.8113 60.3216 73.1218 65.8238C73.5347 66.8074 79.188 79.7198 79.0484 79.7325C76.7474 79.9426 72.5372 71.8987 71.4354 70.4917C67.7695 65.8064 63.441 60.8594 57.9251 58.3421C46.0829 52.9327 35.5986 66.1461 32.3965 76.0031C28.7169 87.3424 29.0179 105.205 40.8261 112.045Z" fill="#F7FEE7"/>
</svg>
